<?xml version="1.0" encoding="UTF-8" standalone="no"?>
<!DOCTYPE svg PUBLIC "-//W3C//DTD SVG 1.1//EN"
 "http://www.w3.org/Graphics/SVG/1.1/DTD/svg11.dtd">
<!-- Generated by graphviz version 7.0.2 (20221119.0110)
 -->
<!-- Pages: 1 -->
<svg width="1386pt" height="660pt"
 viewBox="0.00 0.00 1386.23 659.58" xmlns="http://www.w3.org/2000/svg" xmlns:xlink="http://www.w3.org/1999/xlink">
<g id="graph0" class="graph" transform="scale(1 1) rotate(0) translate(4 655.58)">
<polygon fill="white" stroke="none" points="-4,4 -4,-655.58 1382.23,-655.58 1382.23,4 -4,4"/>
<!-- long_position -->
<g id="node1" class="node">
<title>long_position</title>
<polygon fill="lightgray" stroke="black" points="365.11,-629.47 299.11,-629.47 299.11,-611.47 365.11,-611.47 365.11,-629.47"/>
<text text-anchor="middle" x="332.11" y="-618.27" font-family="Times New Roman,serif" font-size="9.00">long_position</text>
</g>
<!-- short_position -->
<g id="node2" class="node">
<title>short_position</title>
<polygon fill="lightgray" stroke="black" points="453.11,-629.47 383.11,-629.47 383.11,-611.47 453.11,-611.47 453.11,-629.47"/>
<text text-anchor="middle" x="418.11" y="-618.27" font-family="Times New Roman,serif" font-size="9.00">short_position</text>
</g>
<!-- sma5 -->
<g id="node3" class="node">
<title>sma5</title>
<polygon fill="lightgray" stroke="black" points="579.61,-334.79 544.61,-334.79 544.61,-316.79 579.61,-316.79 579.61,-334.79"/>
<text text-anchor="middle" x="562.11" y="-323.59" font-family="Times New Roman,serif" font-size="9.00">sma5</text>
</g>
<!-- buy -->
<g id="node12" class="node">
<title>buy</title>
<ellipse fill="lightblue" stroke="black" cx="562.11" cy="-227.56" rx="21.84" ry="21.84"/>
<text text-anchor="middle" x="562.11" y="-225.36" font-family="Times New Roman,serif" font-size="9.00">buy</text>
</g>
<!-- sma5&#45;&gt;buy -->
<g id="edge33" class="edge">
<title>sma5&#45;&gt;buy</title>
<path fill="none" stroke="red" stroke-width="0.35" d="M562.11,-316.58C562.11,-304.24 562.11,-280.21 562.11,-260.37"/>
<polygon fill="red" stroke="red" stroke-width="0.35" points="565.61,-260.41 562.11,-250.41 558.61,-260.41 565.61,-260.41"/>
</g>
<!-- sma10 -->
<g id="node4" class="node">
<title>sma10</title>
<polygon fill="lightgray" stroke="black" points="511.11,-629.47 471.11,-629.47 471.11,-611.47 511.11,-611.47 511.11,-629.47"/>
<text text-anchor="middle" x="491.11" y="-618.27" font-family="Times New Roman,serif" font-size="9.00">sma10</text>
</g>
<!-- 226306 -->
<g id="node15" class="node">
<title>226306</title>
<ellipse fill="white" stroke="black" cx="491.11" cy="-227.56" rx="31.23" ry="31.23"/>
<text text-anchor="middle" x="491.11" y="-225.36" font-family="Times New Roman,serif" font-size="9.00">226306</text>
</g>
<!-- sma10&#45;&gt;226306 -->
<g id="edge37" class="edge">
<title>sma10&#45;&gt;226306</title>
<path fill="none" stroke="red" stroke-width="0.61" d="M491.11,-611.3C491.11,-567.56 491.11,-359.62 491.11,-269.91"/>
<polygon fill="red" stroke="red" stroke-width="0.61" points="494.61,-269.99 491.11,-259.99 487.61,-269.99 494.61,-269.99"/>
</g>
<!-- 232241 -->
<g id="node22" class="node">
<title>232241</title>
<ellipse fill="white" stroke="black" cx="970.11" cy="-522.24" rx="31.23" ry="31.23"/>
<text text-anchor="middle" x="970.11" y="-520.04" font-family="Times New Roman,serif" font-size="9.00">232241</text>
</g>
<!-- sma10&#45;&gt;232241 -->
<g id="edge26" class="edge">
<title>sma10&#45;&gt;232241</title>
<path fill="none" stroke="green" stroke-width="0.47" d="M511.39,-615.39C583.73,-600.86 830.1,-551.37 928.76,-531.55"/>
<polygon fill="green" stroke="green" stroke-width="0.47" points="929.41,-534.99 938.53,-529.58 928.03,-528.12 929.41,-534.99"/>
</g>
<!-- 222453 -->
<g id="node37" class="node">
<title>222453</title>
<ellipse fill="white" stroke="black" cx="271.11" cy="-227.56" rx="31.23" ry="31.23"/>
<text text-anchor="middle" x="271.11" y="-225.36" font-family="Times New Roman,serif" font-size="9.00">222453</text>
</g>
<!-- sma10&#45;&gt;222453 -->
<g id="edge34" class="edge">
<title>sma10&#45;&gt;222453</title>
<path fill="none" stroke="red" stroke-width="0.69" d="M484.09,-611.46C451.47,-574.13 315.27,-416.38 290.11,-356.9 278.49,-329.43 273.81,-296.05 272,-270.21"/>
<polygon fill="red" stroke="red" stroke-width="0.69" points="275.5,-270.11 271.43,-260.33 268.51,-270.52 275.5,-270.11"/>
</g>
<!-- slowk -->
<g id="node5" class="node">
<title>slowk</title>
<polygon fill="lightgray" stroke="black" points="90.11,-334.79 52.11,-334.79 52.11,-316.79 90.11,-316.79 90.11,-334.79"/>
<text text-anchor="middle" x="71.11" y="-323.59" font-family="Times New Roman,serif" font-size="9.00">slowk</text>
</g>
<!-- 207955 -->
<g id="node29" class="node">
<title>207955</title>
<ellipse fill="white" stroke="black" cx="111.11" cy="-227.56" rx="31.23" ry="31.23"/>
<text text-anchor="middle" x="111.11" y="-225.36" font-family="Times New Roman,serif" font-size="9.00">207955</text>
</g>
<!-- slowk&#45;&gt;207955 -->
<g id="edge5" class="edge">
<title>slowk&#45;&gt;207955</title>
<path fill="none" stroke="red" stroke-width="0.21" stroke-dasharray="1,5" d="M74.52,-316.58C79.16,-305.44 87.75,-284.77 95.44,-266.27"/>
<polygon fill="red" stroke="red" stroke-width="0.21" points="98.63,-267.71 99.23,-257.14 92.16,-265.03 98.63,-267.71"/>
</g>
<!-- 223713 -->
<g id="node32" class="node">
<title>223713</title>
<ellipse fill="white" stroke="black" cx="31.11" cy="-227.56" rx="31.23" ry="31.23"/>
<text text-anchor="middle" x="31.11" y="-225.36" font-family="Times New Roman,serif" font-size="9.00">223713</text>
</g>
<!-- slowk&#45;&gt;223713 -->
<g id="edge12" class="edge">
<title>slowk&#45;&gt;223713</title>
<path fill="none" stroke="green" stroke-width="0.14" stroke-dasharray="1,5" d="M67.7,-316.58C63.07,-305.44 54.48,-284.77 46.79,-266.27"/>
<polygon fill="green" stroke="green" stroke-width="0.14" points="50.02,-264.94 42.95,-257.05 43.56,-267.62 50.02,-264.94"/>
</g>
<!-- slowd -->
<g id="node6" class="node">
<title>slowd</title>
<polygon fill="lightgray" stroke="black" points="1078.11,-629.47 1040.11,-629.47 1040.11,-611.47 1078.11,-611.47 1078.11,-629.47"/>
<text text-anchor="middle" x="1059.11" y="-618.27" font-family="Times New Roman,serif" font-size="9.00">slowd</text>
</g>
<!-- macdhist_diff -->
<g id="node7" class="node">
<title>macdhist_diff</title>
<polygon fill="lightgray" stroke="black" points="1162.11,-629.47 1096.11,-629.47 1096.11,-611.47 1162.11,-611.47 1162.11,-629.47"/>
<text text-anchor="middle" x="1129.11" y="-618.27" font-family="Times New Roman,serif" font-size="9.00">macdhist_diff</text>
</g>
<!-- cci -->
<g id="node8" class="node">
<title>cci</title>
<polygon fill="lightgray" stroke="black" points="665.11,-334.79 639.11,-334.79 639.11,-316.79 665.11,-316.79 665.11,-334.79"/>
<text text-anchor="middle" x="652.11" y="-323.59" font-family="Times New Roman,serif" font-size="9.00">cci</text>
</g>
<!-- cci&#45;&gt;buy -->
<g id="edge1" class="edge">
<title>cci&#45;&gt;buy</title>
<path fill="none" stroke="red" stroke-width="0.1" d="M644.44,-316.58C631.11,-302.34 603.24,-272.54 583.63,-251.57"/>
<polygon fill="red" stroke="red" stroke-width="0.1" points="586.32,-249.32 576.93,-244.41 581.2,-254.1 586.32,-249.32"/>
</g>
<!-- cci&#45;&gt;226306 -->
<g id="edge7" class="edge">
<title>cci&#45;&gt;226306</title>
<path fill="none" stroke="red" stroke-width="0.52" d="M638.68,-318.26C615.96,-307.03 568.73,-282.93 531.11,-258.68 528.73,-257.14 526.3,-255.51 523.89,-253.82"/>
<polygon fill="red" stroke="red" stroke-width="0.52" points="526.05,-251.07 515.89,-248.07 521.96,-256.75 526.05,-251.07"/>
</g>
<!-- 224424 -->
<g id="node21" class="node">
<title>224424</title>
<ellipse fill="white" stroke="black" cx="810.11" cy="-129.34" rx="31.23" ry="31.23"/>
<text text-anchor="middle" x="810.11" y="-127.14" font-family="Times New Roman,serif" font-size="9.00">224424</text>
</g>
<!-- cci&#45;&gt;224424 -->
<g id="edge13" class="edge">
<title>cci&#45;&gt;224424</title>
<path fill="none" stroke="red" stroke-width="0.25" stroke-dasharray="1,5" d="M654.23,-316.41C660.1,-294.56 678.32,-234.88 711.11,-196.45 728.22,-176.41 752.83,-159.93 773.24,-148.44"/>
<polygon fill="red" stroke="red" stroke-width="0.25" points="774.84,-151.56 781.95,-143.7 771.49,-145.41 774.84,-151.56"/>
</g>
<!-- 238641 -->
<g id="node23" class="node">
<title>238641</title>
<ellipse fill="white" stroke="black" cx="751.11" cy="-227.56" rx="31.23" ry="31.23"/>
<text text-anchor="middle" x="751.11" y="-225.36" font-family="Times New Roman,serif" font-size="9.00">238641</text>
</g>
<!-- cci&#45;&gt;238641 -->
<g id="edge29" class="edge">
<title>cci&#45;&gt;238641</title>
<path fill="none" stroke="green" stroke-width="0.1" d="M660.55,-316.58C674.02,-303.49 701,-277.27 722.02,-256.84"/>
<polygon fill="green" stroke="green" stroke-width="0.1" points="724.34,-259.47 729.07,-249.99 719.46,-254.45 724.34,-259.47"/>
</g>
<!-- willr -->
<g id="node9" class="node">
<title>willr</title>
<polygon fill="lightgray" stroke="black" points="437.61,-334.79 404.61,-334.79 404.61,-316.79 437.61,-316.79 437.61,-334.79"/>
<text text-anchor="middle" x="421.11" y="-323.59" font-family="Times New Roman,serif" font-size="9.00">willr</text>
</g>
<!-- sell -->
<g id="node13" class="node">
<title>sell</title>
<ellipse fill="lightblue" stroke="black" cx="421.11" cy="-227.56" rx="20.51" ry="20.51"/>
<text text-anchor="middle" x="421.11" y="-225.36" font-family="Times New Roman,serif" font-size="9.00">sell</text>
</g>
<!-- willr&#45;&gt;sell -->
<g id="edge31" class="edge">
<title>willr&#45;&gt;sell</title>
<path fill="none" stroke="green" stroke-width="0.26" d="M421.11,-316.58C421.11,-303.87 421.11,-278.78 421.11,-258.62"/>
<polygon fill="green" stroke="green" stroke-width="0.26" points="424.61,-258.73 421.11,-248.73 417.61,-258.73 424.61,-258.73"/>
</g>
<!-- rsi -->
<g id="node10" class="node">
<title>rsi</title>
<polygon fill="lightgray" stroke="black" points="1022.11,-629.47 996.11,-629.47 996.11,-611.47 1022.11,-611.47 1022.11,-629.47"/>
<text text-anchor="middle" x="1009.11" y="-618.27" font-family="Times New Roman,serif" font-size="9.00">rsi</text>
</g>
<!-- rsi&#45;&gt;232241 -->
<g id="edge14" class="edge">
<title>rsi&#45;&gt;232241</title>
<path fill="none" stroke="red" stroke-width="0.37" stroke-dasharray="1,5" d="M1005.79,-611.26C1001.29,-600.17 992.97,-579.64 985.5,-561.2"/>
<polygon fill="red" stroke="red" stroke-width="0.37" points="988.78,-559.99 981.78,-552.04 982.3,-562.62 988.78,-559.99"/>
</g>
<!-- 218697 -->
<g id="node28" class="node">
<title>218697</title>
<ellipse fill="white" stroke="black" cx="1029.11" cy="-325.79" rx="31.23" ry="31.23"/>
<text text-anchor="middle" x="1029.11" y="-323.59" font-family="Times New Roman,serif" font-size="9.00">218697</text>
</g>
<!-- rsi&#45;&gt;218697 -->
<g id="edge2" class="edge">
<title>rsi&#45;&gt;218697</title>
<path fill="none" stroke="green" stroke-width="0.21" d="M1009.69,-611.02C1012.11,-575.54 1021.57,-437.14 1026.34,-367.41"/>
<polygon fill="green" stroke="green" stroke-width="0.21" points="1029.82,-367.77 1027.01,-357.56 1022.84,-367.3 1029.82,-367.77"/>
</g>
<!-- adosc -->
<g id="node11" class="node">
<title>adosc</title>
<polygon fill="lightgray" stroke="black" points="1217.61,-629.47 1180.61,-629.47 1180.61,-611.47 1217.61,-611.47 1217.61,-629.47"/>
<text text-anchor="middle" x="1199.11" y="-618.27" font-family="Times New Roman,serif" font-size="9.00">adosc</text>
</g>
<!-- 229017 -->
<g id="node19" class="node">
<title>229017</title>
<ellipse fill="white" stroke="black" cx="442.11" cy="-31.11" rx="31.23" ry="31.23"/>
<text text-anchor="middle" x="442.11" y="-28.91" font-family="Times New Roman,serif" font-size="9.00">229017</text>
</g>
<!-- buy&#45;&gt;229017 -->
<g id="edge39" class="edge">
<title>buy&#45;&gt;229017</title>
<path fill="none" stroke="green" stroke-width="0.57" d="M563.79,-205.66C564.93,-178.67 563.31,-131.25 542.11,-98.23 527.59,-75.59 502.25,-58.97 480.71,-48.05"/>
<polygon fill="green" stroke="green" stroke-width="0.57" points="482.45,-45 471.92,-43.81 479.41,-51.3 482.45,-45"/>
</g>
<!-- 240702 -->
<g id="node26" class="node">
<title>240702</title>
<ellipse fill="white" stroke="black" cx="502.11" cy="-129.34" rx="31.23" ry="31.23"/>
<text text-anchor="middle" x="502.11" y="-127.14" font-family="Times New Roman,serif" font-size="9.00">240702</text>
</g>
<!-- buy&#45;&gt;240702 -->
<g id="edge41" class="edge">
<title>buy&#45;&gt;240702</title>
<path fill="none" stroke="green" stroke-width="0.43" d="M550.83,-208.46C543.24,-196.29 532.99,-179.85 523.85,-165.19"/>
<polygon fill="green" stroke="green" stroke-width="0.43" points="526.94,-163.53 518.67,-156.9 521,-167.24 526.94,-163.53"/>
</g>
<!-- 219545 -->
<g id="node20" class="node">
<title>219545</title>
<ellipse fill="white" stroke="black" cx="421.11" cy="-129.34" rx="31.23" ry="31.23"/>
<text text-anchor="middle" x="421.11" y="-127.14" font-family="Times New Roman,serif" font-size="9.00">219545</text>
</g>
<!-- sell&#45;&gt;219545 -->
<g id="edge44" class="edge">
<title>sell&#45;&gt;219545</title>
<path fill="none" stroke="green" stroke-width="0.2" d="M421.11,-206.63C421.11,-196.3 421.11,-183.31 421.11,-170.99"/>
<polygon fill="green" stroke="green" stroke-width="0.2" points="424.61,-171.17 421.11,-161.17 417.61,-171.17 424.61,-171.17"/>
</g>
<!-- volume -->
<g id="node14" class="node">
<title>volume</title>
<ellipse fill="lightblue" stroke="black" cx="1058.11" cy="-129.34" rx="30.31" ry="30.31"/>
<text text-anchor="middle" x="1058.11" y="-127.14" font-family="Times New Roman,serif" font-size="9.00">volume</text>
</g>
<!-- 226306&#45;&gt;219545 -->
<g id="edge8" class="edge">
<title>226306&#45;&gt;219545</title>
<path fill="none" stroke="green" stroke-width="0.11" stroke-dasharray="1,5" d="M473.09,-201.78C464.51,-190 454.15,-175.75 444.93,-163.09"/>
<polygon fill="green" stroke="green" stroke-width="0.11" points="447.89,-161.2 439.18,-155.17 442.23,-165.32 447.89,-161.2"/>
</g>
<!-- 240393 -->
<g id="node16" class="node">
<title>240393</title>
<ellipse fill="white" stroke="black" cx="949.11" cy="-227.56" rx="31.23" ry="31.23"/>
<text text-anchor="middle" x="949.11" y="-225.36" font-family="Times New Roman,serif" font-size="9.00">240393</text>
</g>
<!-- 240393&#45;&gt;224424 -->
<g id="edge40" class="edge">
<title>240393&#45;&gt;224424</title>
<path fill="none" stroke="green" stroke-width="0.45" d="M924.74,-207.87C919.61,-204.04 914.22,-200.07 909.11,-196.45 888.01,-181.48 863.88,-165.34 844.72,-152.76"/>
<polygon fill="green" stroke="green" stroke-width="0.45" points="846.87,-149.99 836.59,-147.44 843.04,-155.84 846.87,-149.99"/>
</g>
<!-- 213650 -->
<g id="node17" class="node">
<title>213650</title>
<ellipse fill="white" stroke="black" cx="122.11" cy="-129.34" rx="31.23" ry="31.23"/>
<text text-anchor="middle" x="122.11" y="-127.14" font-family="Times New Roman,serif" font-size="9.00">213650</text>
</g>
<!-- 213650&#45;&gt;229017 -->
<g id="edge9" class="edge">
<title>213650&#45;&gt;229017</title>
<path fill="none" stroke="green" stroke-width="0.55" d="M151.93,-119.37C209.69,-102 336.87,-63.76 401.98,-44.18"/>
<polygon fill="green" stroke="green" stroke-width="0.55" points="402.89,-47.56 411.46,-41.33 400.88,-40.86 402.89,-47.56"/>
</g>
<!-- 219646 -->
<g id="node39" class="node">
<title>219646</title>
<ellipse fill="white" stroke="black" cx="122.11" cy="-31.11" rx="31.23" ry="31.23"/>
<text text-anchor="middle" x="122.11" y="-28.91" font-family="Times New Roman,serif" font-size="9.00">219646</text>
</g>
<!-- 213650&#45;&gt;219646 -->
<g id="edge4" class="edge">
<title>213650&#45;&gt;219646</title>
<path fill="none" stroke="green" stroke-width="0.2" stroke-dasharray="1,5" d="M122.11,-97.63C122.11,-89.74 122.11,-81.13 122.11,-72.82"/>
<polygon fill="green" stroke="green" stroke-width="0.2" points="125.61,-72.83 122.11,-62.83 118.61,-72.83 125.61,-72.83"/>
</g>
<!-- 235032 -->
<g id="node18" class="node">
<title>235032</title>
<ellipse fill="white" stroke="black" cx="951.11" cy="-424.01" rx="31.23" ry="31.23"/>
<text text-anchor="middle" x="951.11" y="-421.81" font-family="Times New Roman,serif" font-size="9.00">235032</text>
</g>
<!-- 235032&#45;&gt;218697 -->
<g id="edge18" class="edge">
<title>235032&#45;&gt;218697</title>
<path fill="none" stroke="green" stroke-width="0.16" d="M970.39,-399.23C980.42,-386.85 992.82,-371.56 1003.63,-358.23"/>
<polygon fill="green" stroke="green" stroke-width="0.16" points="1006.05,-360.8 1009.63,-350.82 1000.61,-356.39 1006.05,-360.8"/>
</g>
<!-- 224424&#45;&gt;224424 -->
<g id="edge19" class="edge">
<title>224424&#45;&gt;224424</title>
<path fill="none" stroke="green" stroke-width="0.33" d="M836.14,-147.35C848.43,-149.44 859.23,-143.44 859.23,-129.34 859.23,-119.42 853.89,-113.51 846.45,-111.6"/>
<polygon fill="green" stroke="green" stroke-width="0.33" points="846.73,-108.11 836.63,-111.34 846.54,-115.11 846.73,-108.11"/>
</g>
<!-- 218552 -->
<g id="node25" class="node">
<title>218552</title>
<ellipse fill="white" stroke="black" cx="810.11" cy="-31.11" rx="31.23" ry="31.23"/>
<text text-anchor="middle" x="810.11" y="-28.91" font-family="Times New Roman,serif" font-size="9.00">218552</text>
</g>
<!-- 224424&#45;&gt;218552 -->
<g id="edge6" class="edge">
<title>224424&#45;&gt;218552</title>
<path fill="none" stroke="red" stroke-width="0.22" d="M810.11,-97.63C810.11,-89.74 810.11,-81.13 810.11,-72.82"/>
<polygon fill="red" stroke="red" stroke-width="0.22" points="813.61,-72.86 810.11,-62.86 806.61,-72.86 813.61,-72.86"/>
</g>
<!-- 232241&#45;&gt;235032 -->
<g id="edge17" class="edge">
<title>232241&#45;&gt;235032</title>
<path fill="none" stroke="green" stroke-width="0.13" d="M964.21,-491.32C962.54,-482.9 960.71,-473.61 958.95,-464.72"/>
<polygon fill="green" stroke="green" stroke-width="0.13" points="962.43,-464.24 957.06,-455.11 955.56,-465.6 962.43,-464.24"/>
</g>
<!-- 232241&#45;&gt;218697 -->
<g id="edge15" class="edge">
<title>232241&#45;&gt;218697</title>
<path fill="none" stroke="green" stroke-width="0.75" d="M979.54,-491.99C983.2,-480.51 987.4,-467.22 991.11,-455.13 1000.17,-425.62 1010.06,-392.17 1017.48,-366.83"/>
<polygon fill="green" stroke="green" stroke-width="0.75" points="1020.83,-367.82 1020.28,-357.24 1014.12,-365.86 1020.83,-367.82"/>
</g>
<!-- 238641&#45;&gt;224424 -->
<g id="edge30" class="edge">
<title>238641&#45;&gt;224424</title>
<path fill="none" stroke="red" stroke-width="0.21" d="M767.23,-200.27C773.87,-189.45 781.65,-176.76 788.75,-165.19"/>
<polygon fill="red" stroke="red" stroke-width="0.21" points="791.6,-167.23 793.84,-156.87 785.63,-163.57 791.6,-167.23"/>
</g>
<!-- 235956 -->
<g id="node24" class="node">
<title>235956</title>
<ellipse fill="white" stroke="black" cx="1029.11" cy="-227.56" rx="31.23" ry="31.23"/>
<text text-anchor="middle" x="1029.11" y="-225.36" font-family="Times New Roman,serif" font-size="9.00">235956</text>
</g>
<!-- 235956&#45;&gt;volume -->
<g id="edge21" class="edge">
<title>235956&#45;&gt;volume</title>
<path fill="none" stroke="red" stroke-width="0.28" d="M1037.97,-197.17C1040.66,-188.24 1043.66,-178.29 1046.5,-168.86"/>
<polygon fill="red" stroke="red" stroke-width="0.28" points="1049.85,-169.89 1049.38,-159.3 1043.15,-167.87 1049.85,-169.89"/>
</g>
<!-- 235956&#45;&gt;224424 -->
<g id="edge43" class="edge">
<title>235956&#45;&gt;224424</title>
<path fill="none" stroke="green" stroke-width="0.17" d="M1005.34,-206.9C1000.17,-203.14 994.61,-199.45 989.11,-196.45 943.73,-171.69 887.16,-152.55 849.91,-141.38"/>
<polygon fill="green" stroke="green" stroke-width="0.17" points="851.23,-138.12 840.65,-138.65 849.25,-144.83 851.23,-138.12"/>
</g>
<!-- 240702&#45;&gt;229017 -->
<g id="edge42" class="edge">
<title>240702&#45;&gt;229017</title>
<path fill="none" stroke="green" stroke-width="0.63" d="M485.88,-102.3C479.14,-91.49 471.22,-78.79 463.98,-67.19"/>
<polygon fill="green" stroke="green" stroke-width="0.63" points="467.13,-65.62 458.87,-58.99 461.19,-69.32 467.13,-65.62"/>
</g>
<!-- 209478 -->
<g id="node27" class="node">
<title>209478</title>
<ellipse fill="white" stroke="black" cx="1267.11" cy="-620.47" rx="31.23" ry="31.23"/>
<text text-anchor="middle" x="1267.11" y="-618.27" font-family="Times New Roman,serif" font-size="9.00">209478</text>
</g>
<!-- 218697&#45;&gt;volume -->
<g id="edge3" class="edge">
<title>218697&#45;&gt;volume</title>
<path fill="none" stroke="red" stroke-width="0.14" d="M1048.17,-300.55C1056.33,-288.65 1064.93,-273.67 1069.11,-258.68 1077.34,-229.2 1073.62,-194.57 1068.39,-168.71"/>
<polygon fill="red" stroke="red" stroke-width="0.14" points="1071.85,-168.15 1066.29,-159.13 1065.01,-169.64 1071.85,-168.15"/>
</g>
<!-- 218697&#45;&gt;235956 -->
<g id="edge20" class="edge">
<title>218697&#45;&gt;235956</title>
<path fill="none" stroke="green" stroke-width="0.12" d="M1029.11,-294.08C1029.11,-286.1 1029.11,-277.39 1029.11,-268.99"/>
<polygon fill="green" stroke="green" stroke-width="0.12" points="1032.61,-269.16 1029.11,-259.16 1025.61,-269.16 1032.61,-269.16"/>
</g>
<!-- 230355 -->
<g id="node30" class="node">
<title>230355</title>
<ellipse fill="white" stroke="black" cx="351.11" cy="-227.56" rx="31.23" ry="31.23"/>
<text text-anchor="middle" x="351.11" y="-225.36" font-family="Times New Roman,serif" font-size="9.00">230355</text>
</g>
<!-- 230355&#45;&gt;219545 -->
<g id="edge10" class="edge">
<title>230355&#45;&gt;219545</title>
<path fill="none" stroke="red" stroke-width="0.67" d="M369.14,-201.78C377.55,-190.22 387.68,-176.29 396.76,-163.81"/>
<polygon fill="red" stroke="red" stroke-width="0.67" points="399.5,-166 402.55,-155.86 393.84,-161.88 399.5,-166"/>
</g>
<!-- 229853 -->
<g id="node31" class="node">
<title>229853</title>
<ellipse fill="white" stroke="black" cx="810.11" cy="-325.79" rx="31.23" ry="31.23"/>
<text text-anchor="middle" x="810.11" y="-323.59" font-family="Times New Roman,serif" font-size="9.00">229853</text>
</g>
<!-- 229853&#45;&gt;224424 -->
<g id="edge16" class="edge">
<title>229853&#45;&gt;224424</title>
<path fill="none" stroke="green" stroke-width="0.11" stroke-dasharray="1,5" d="M810.11,-294.41C810.11,-261.11 810.11,-207.55 810.11,-170.74"/>
<polygon fill="green" stroke="green" stroke-width="0.11" points="813.61,-171 810.11,-161 806.61,-171 813.61,-171"/>
</g>
<!-- 239462 -->
<g id="node35" class="node">
<title>239462</title>
<ellipse fill="white" stroke="black" cx="869.11" cy="-227.56" rx="31.23" ry="31.23"/>
<text text-anchor="middle" x="869.11" y="-225.36" font-family="Times New Roman,serif" font-size="9.00">239462</text>
</g>
<!-- 229853&#45;&gt;239462 -->
<g id="edge35" class="edge">
<title>229853&#45;&gt;239462</title>
<path fill="none" stroke="green" stroke-width="0.31" d="M826.23,-298.49C832.87,-287.68 840.65,-274.99 847.75,-263.41"/>
<polygon fill="green" stroke="green" stroke-width="0.31" points="850.52,-265.58 852.76,-255.23 844.55,-261.92 850.52,-265.58"/>
</g>
<!-- 237291 -->
<g id="node36" class="node">
<title>237291</title>
<ellipse fill="white" stroke="black" cx="633.11" cy="-227.56" rx="31.23" ry="31.23"/>
<text text-anchor="middle" x="633.11" y="-225.36" font-family="Times New Roman,serif" font-size="9.00">237291</text>
</g>
<!-- 229853&#45;&gt;237291 -->
<g id="edge23" class="edge">
<title>229853&#45;&gt;237291</title>
<path fill="none" stroke="red" stroke-width="0.35" d="M782.84,-309.96C752.44,-293.44 703.13,-266.63 669.46,-248.33"/>
<polygon fill="red" stroke="red" stroke-width="0.35" points="671.33,-245.36 660.87,-243.65 667.98,-251.51 671.33,-245.36"/>
</g>
<!-- 223713&#45;&gt;213650 -->
<g id="edge25" class="edge">
<title>223713&#45;&gt;213650</title>
<path fill="none" stroke="green" stroke-width="0.17" d="M52.22,-204.25C64.74,-191.01 80.75,-174.07 94.3,-159.75"/>
<polygon fill="green" stroke="green" stroke-width="0.17" points="96.61,-162.4 100.94,-152.73 91.53,-157.59 96.61,-162.4"/>
</g>
<!-- 234211 -->
<g id="node33" class="node">
<title>234211</title>
<ellipse fill="white" stroke="black" cx="191.11" cy="-227.56" rx="31.23" ry="31.23"/>
<text text-anchor="middle" x="191.11" y="-225.36" font-family="Times New Roman,serif" font-size="9.00">234211</text>
</g>
<!-- 226661 -->
<g id="node34" class="node">
<title>226661</title>
<ellipse fill="white" stroke="black" cx="330.11" cy="-325.79" rx="31.23" ry="31.23"/>
<text text-anchor="middle" x="330.11" y="-323.59" font-family="Times New Roman,serif" font-size="9.00">226661</text>
</g>
<!-- 226661&#45;&gt;222453 -->
<g id="edge11" class="edge">
<title>226661&#45;&gt;222453</title>
<path fill="none" stroke="red" stroke-width="0.44" stroke-dasharray="1,5" d="M313.99,-298.49C307.42,-287.78 299.73,-275.24 292.69,-263.75"/>
<polygon fill="red" stroke="red" stroke-width="0.44" points="295.77,-262.08 287.56,-255.39 289.8,-265.74 295.77,-262.08"/>
</g>
<!-- 239462&#45;&gt;224424 -->
<g id="edge36" class="edge">
<title>239462&#45;&gt;224424</title>
<path fill="none" stroke="green" stroke-width="0.19" d="M852.99,-200.27C846.36,-189.45 838.58,-176.76 831.48,-165.19"/>
<polygon fill="green" stroke="green" stroke-width="0.19" points="834.58,-163.54 826.37,-156.85 828.61,-167.2 834.58,-163.54"/>
</g>
<!-- 237291&#45;&gt;224424 -->
<g id="edge24" class="edge">
<title>237291&#45;&gt;224424</title>
<path fill="none" stroke="green" stroke-width="0.71" stroke-dasharray="1,5" d="M658.46,-208.8C664.78,-204.59 671.61,-200.23 678.11,-196.45 708.95,-178.5 745.29,-160.53 772.02,-147.86"/>
<polygon fill="green" stroke="green" stroke-width="0.71" points="773.23,-151.16 780.79,-143.73 770.25,-144.82 773.23,-151.16"/>
</g>
<!-- 222453&#45;&gt;229017 -->
<g id="edge38" class="edge">
<title>222453&#45;&gt;229017</title>
<path fill="none" stroke="red" stroke-width="0.15" d="M290.73,-203.16C312.54,-177.26 348.94,-134.41 381.11,-98.23 391.74,-86.28 403.62,-73.31 414.05,-62.06"/>
<polygon fill="red" stroke="red" stroke-width="0.15" points="416.61,-64.45 420.86,-54.74 411.48,-59.68 416.61,-64.45"/>
</g>
<!-- 234742 -->
<g id="node38" class="node">
<title>234742</title>
<ellipse fill="white" stroke="black" cx="1347.11" cy="-620.47" rx="31.23" ry="31.23"/>
<text text-anchor="middle" x="1347.11" y="-618.27" font-family="Times New Roman,serif" font-size="9.00">234742</text>
</g>
<!-- 205567 -->
<g id="node40" class="node">
<title>205567</title>
<ellipse fill="white" stroke="black" cx="201.11" cy="-325.79" rx="31.23" ry="31.23"/>
<text text-anchor="middle" x="201.11" y="-323.59" font-family="Times New Roman,serif" font-size="9.00">205567</text>
</g>
<!-- 205567&#45;&gt;207955 -->
<g id="edge22" class="edge">
<title>205567&#45;&gt;207955</title>
<path fill="none" stroke="green" stroke-width="0.2" d="M180.24,-302.47C167.95,-289.33 152.24,-272.54 138.91,-258.28"/>
<polygon fill="green" stroke="green" stroke-width="0.2" points="141.78,-256.22 132.39,-251.31 136.66,-261.01 141.78,-256.22"/>
</g>
<!-- 205567&#45;&gt;234211 -->
<g id="edge27" class="edge">
<title>205567&#45;&gt;234211</title>
<path fill="none" stroke="green" stroke-width="0.12" d="M197.95,-294.34C197.1,-286.19 196.17,-277.25 195.28,-268.66"/>
<polygon fill="green" stroke="green" stroke-width="0.12" points="198.79,-268.58 194.27,-258.99 191.83,-269.3 198.79,-268.58"/>
</g>
<!-- 205567&#45;&gt;237291 -->
<g id="edge32" class="edge">
<title>205567&#45;&gt;237291</title>
<path fill="none" stroke="red" stroke-width="0.25" d="M229.94,-313.33C247.15,-306.92 269.59,-299.31 290.11,-294.68 422.39,-264.78 467.26,-309.2 593.11,-258.68 596,-257.52 598.87,-256.09 601.66,-254.49"/>
<polygon fill="red" stroke="red" stroke-width="0.25" points="603.43,-257.52 609.94,-249.16 599.63,-251.64 603.43,-257.52"/>
</g>
<!-- 205567&#45;&gt;222453 -->
<g id="edge28" class="edge">
<title>205567&#45;&gt;222453</title>
<path fill="none" stroke="red" stroke-width="0.28" d="M219.14,-300.01C227.63,-288.34 237.88,-274.24 247.03,-261.67"/>
<polygon fill="red" stroke="red" stroke-width="0.28" points="249.85,-263.74 252.9,-253.6 244.19,-259.62 249.85,-263.74"/>
</g>
</g>
</svg>
